<svg xmlns="http://www.w3.org/2000/svg" width="470" height="325" viewBox="0 0 470 325">
<style>text{font-family:Arial,sans-serif;fill:#1f2933;font-size:12px}.title{font-size:18px;font-weight:700}</style>
<rect width="100%" height="100%" fill="#fbfcfd"/>
<text class="title" x="24" y="30">Decorative Injector Face</text>
<text x="24" y="52">Display marks only, no through-holes or flow paths</text>
<circle cx="220" cy="140" r="126" fill="#edf3f8" stroke="#31556f" stroke-width="2"/>
<circle cx="220" cy="140" r="18" fill="none" stroke="#9aa6b2" stroke-width="2"/>
<circle cx="250.80" cy="140.00" r="3.8" fill="#31556f"/>
<circle cx="241.78" cy="161.78" r="3.8" fill="#31556f"/>
<circle cx="220.00" cy="170.80" r="3.8" fill="#31556f"/>
<circle cx="198.22" cy="161.78" r="3.8" fill="#31556f"/>
<circle cx="189.20" cy="140.00" r="3.8" fill="#31556f"/>
<circle cx="198.22" cy="118.22" r="3.8" fill="#31556f"/>
<circle cx="220.00" cy="109.20" r="3.8" fill="#31556f"/>
<circle cx="241.78" cy="118.22" r="3.8" fill="#31556f"/>
<circle cx="283.80" cy="140.00" r="3.8" fill="#31556f"/>
<circle cx="278.94" cy="164.42" r="3.8" fill="#31556f"/>
<circle cx="265.11" cy="185.11" r="3.8" fill="#31556f"/>
<circle cx="244.42" cy="198.94" r="3.8" fill="#31556f"/>
<circle cx="220.00" cy="203.80" r="3.8" fill="#31556f"/>
<circle cx="195.58" cy="198.94" r="3.8" fill="#31556f"/>
<circle cx="174.89" cy="185.11" r="3.8" fill="#31556f"/>
<circle cx="161.06" cy="164.42" r="3.8" fill="#31556f"/>
<circle cx="156.20" cy="140.00" r="3.8" fill="#31556f"/>
<circle cx="161.06" cy="115.58" r="3.8" fill="#31556f"/>
<circle cx="174.89" cy="94.89" r="3.8" fill="#31556f"/>
<circle cx="195.58" cy="81.06" r="3.8" fill="#31556f"/>
<circle cx="220.00" cy="76.20" r="3.8" fill="#31556f"/>
<circle cx="244.42" cy="81.06" r="3.8" fill="#31556f"/>
<circle cx="265.11" cy="94.89" r="3.8" fill="#31556f"/>
<circle cx="278.94" cy="115.58" r="3.8" fill="#31556f"/>
<circle cx="220.00" cy="140.00" r="3.8" fill="#31556f"/>
<text x="24" y="292">DISPLAY MODEL ONLY - NOT FOR FABRICATION, PRESSURE TESTING, PROPELLANT USE, IGNITION, LAUNCH, OR HOT FIRE.</text>
</svg>
