0
SECTION
2
HEADER
9
$INSUNITS
70
0
0
ENDSEC
0
SECTION
2
ENTITIES
999
NORMALIZED TRAINING PROFILE - NOT FOR CNC OR MANUFACTURING
0
POINT
8
NORMALIZED_PROFILE
10
-1.600000
20
1.950000
30
0.0
0
POINT
8
NORMALIZED_PROFILE
10
-1.530435
20
1.880856
30
0.0
0
POINT
8
NORMALIZED_PROFILE
10
-1.460870
20
1.813878
30
0.0
0
POINT
8
NORMALIZED_PROFILE
10
-1.391304
20
1.749096
30
0.0
0
POINT
8
NORMALIZED_PROFILE
10
-1.321739
20
1.686542
30
0.0
0
POINT
8
NORMALIZED_PROFILE
10
-1.252174
20
1.626253
30
0.0
0
POINT
8
NORMALIZED_PROFILE
10
-1.182609
20
1.568263
30
0.0
0
POINT
8
NORMALIZED_PROFILE
10
-1.113043
20
1.512614
30
0.0
0
POINT
8
NORMALIZED_PROFILE
10
-1.043478
20
1.459348
30
0.0
0
POINT
8
NORMALIZED_PROFILE
10
-0.973913
20
1.408511
30
0.0
0
POINT
8
NORMALIZED_PROFILE
10
-0.904348
20
1.360155
30
0.0
0
POINT
8
NORMALIZED_PROFILE
10
-0.834783
20
1.314336
30
0.0
0
POINT
8
NORMALIZED_PROFILE
10
-0.765217
20
1.271115
30
0.0
0
POINT
8
NORMALIZED_PROFILE
10
-0.695652
20
1.230561
30
0.0
0
POINT
8
NORMALIZED_PROFILE
10
-0.626087
20
1.192752
30
0.0
0
POINT
8
NORMALIZED_PROFILE
10
-0.556522
20
1.157775
30
0.0
0
POINT
8
NORMALIZED_PROFILE
10
-0.486957
20
1.125734
30
0.0
0
POINT
8
NORMALIZED_PROFILE
10
-0.417391
20
1.096748
30
0.0
0
POINT
8
NORMALIZED_PROFILE
10
-0.347826
20
1.070964
30
0.0
0
POINT
8
NORMALIZED_PROFILE
10
-0.278261
20
1.048561
30
0.0
0
POINT
8
NORMALIZED_PROFILE
10
-0.208696
20
1.029778
30
0.0
0
POINT
8
NORMALIZED_PROFILE
10
-0.139130
20
1.014946
30
0.0
0
POINT
8
NORMALIZED_PROFILE
10
-0.069565
20
1.004600
30
0.0
0
POINT
8
NORMALIZED_PROFILE
10
-0.000000
20
1.000000
30
0.0
0
POINT
8
NORMALIZED_PROFILE
10
0.030356
20
1.000420
30
0.0
0
POINT
8
NORMALIZED_PROFILE
10
0.060712
20
1.001663
30
0.0
0
POINT
8
NORMALIZED_PROFILE
10
0.091068
20
1.003707
30
0.0
0
POINT
8
NORMALIZED_PROFILE
10
0.121424
20
1.006527
30
0.0
0
POINT
8
NORMALIZED_PROFILE
10
0.151781
20
1.010101
30
0.0
0
POINT
8
NORMALIZED_PROFILE
10
0.182137
20
1.014404
30
0.0
0
POINT
8
NORMALIZED_PROFILE
10
0.212493
20
1.019413
30
0.0
0
POINT
8
NORMALIZED_PROFILE
10
0.242849
20
1.025105
30
0.0
0
POINT
8
NORMALIZED_PROFILE
10
0.273205
20
1.031455
30
0.0
0
POINT
8
NORMALIZED_PROFILE
10
0.303561
20
1.038441
30
0.0
0
POINT
8
NORMALIZED_PROFILE
10
0.333917
20
1.046040
30
0.0
0
POINT
8
NORMALIZED_PROFILE
10
0.364273
20
1.054226
30
0.0
0
POINT
8
NORMALIZED_PROFILE
10
0.394630
20
1.062977
30
0.0
0
POINT
8
NORMALIZED_PROFILE
10
0.424986
20
1.072270
30
0.0
0
POINT
8
NORMALIZED_PROFILE
10
0.455342
20
1.082080
30
0.0
0
POINT
8
NORMALIZED_PROFILE
10
0.485698
20
1.092385
30
0.0
0
POINT
8
NORMALIZED_PROFILE
10
0.516054
20
1.103160
30
0.0
0
POINT
8
NORMALIZED_PROFILE
10
0.546410
20
1.114383
30
0.0
0
POINT
8
NORMALIZED_PROFILE
10
0.576766
20
1.126029
30
0.0
0
POINT
8
NORMALIZED_PROFILE
10
0.607122
20
1.138075
30
0.0
0
POINT
8
NORMALIZED_PROFILE
10
0.637479
20
1.150498
30
0.0
0
POINT
8
NORMALIZED_PROFILE
10
0.667835
20
1.163274
30
0.0
0
POINT
8
NORMALIZED_PROFILE
10
0.698191
20
1.176380
30
0.0
0
POINT
8
NORMALIZED_PROFILE
10
0.728547
20
1.189791
30
0.0
0
POINT
8
NORMALIZED_PROFILE
10
0.758903
20
1.203485
30
0.0
0
POINT
8
NORMALIZED_PROFILE
10
0.789259
20
1.217437
30
0.0
0
POINT
8
NORMALIZED_PROFILE
10
0.819615
20
1.231625
30
0.0
0
POINT
8
NORMALIZED_PROFILE
10
0.849971
20
1.246025
30
0.0
0
POINT
8
NORMALIZED_PROFILE
10
0.880327
20
1.260613
30
0.0
0
POINT
8
NORMALIZED_PROFILE
10
0.910684
20
1.275366
30
0.0
0
POINT
8
NORMALIZED_PROFILE
10
0.941040
20
1.290260
30
0.0
0
POINT
8
NORMALIZED_PROFILE
10
0.971396
20
1.305272
30
0.0
0
POINT
8
NORMALIZED_PROFILE
10
1.001752
20
1.320378
30
0.0
0
POINT
8
NORMALIZED_PROFILE
10
1.032108
20
1.335555
30
0.0
0
POINT
8
NORMALIZED_PROFILE
10
1.062464
20
1.350778
30
0.0
0
POINT
8
NORMALIZED_PROFILE
10
1.092820
20
1.366025
30
0.0
0
POINT
8
NORMALIZED_PROFILE
10
1.123176
20
1.381273
30
0.0
0
POINT
8
NORMALIZED_PROFILE
10
1.153533
20
1.396496
30
0.0
0
POINT
8
NORMALIZED_PROFILE
10
1.183889
20
1.411673
30
0.0
0
POINT
8
NORMALIZED_PROFILE
10
1.214245
20
1.426779
30
0.0
0
POINT
8
NORMALIZED_PROFILE
10
1.244601
20
1.441790
30
0.0
0
POINT
8
NORMALIZED_PROFILE
10
1.274957
20
1.456684
30
0.0
0
POINT
8
NORMALIZED_PROFILE
10
1.305313
20
1.471437
30
0.0
0
POINT
8
NORMALIZED_PROFILE
10
1.335669
20
1.486026
30
0.0
0
POINT
8
NORMALIZED_PROFILE
10
1.366025
20
1.500425
30
0.0
0
POINT
8
NORMALIZED_PROFILE
10
1.396382
20
1.514613
30
0.0
0
POINT
8
NORMALIZED_PROFILE
10
1.426738
20
1.528566
30
0.0
0
POINT
8
NORMALIZED_PROFILE
10
1.457094
20
1.542260
30
0.0
0
POINT
8
NORMALIZED_PROFILE
10
1.487450
20
1.555671
30
0.0
0
POINT
8
NORMALIZED_PROFILE
10
1.517806
20
1.568777
30
0.0
0
POINT
8
NORMALIZED_PROFILE
10
1.548162
20
1.581553
30
0.0
0
POINT
8
NORMALIZED_PROFILE
10
1.578518
20
1.593975
30
0.0
0
POINT
8
NORMALIZED_PROFILE
10
1.608874
20
1.606022
30
0.0
0
POINT
8
NORMALIZED_PROFILE
10
1.639230
20
1.617668
30
0.0
0
POINT
8
NORMALIZED_PROFILE
10
1.669587
20
1.628890
30
0.0
0
POINT
8
NORMALIZED_PROFILE
10
1.699943
20
1.639666
30
0.0
0
POINT
8
NORMALIZED_PROFILE
10
1.730299
20
1.649970
30
0.0
0
POINT
8
NORMALIZED_PROFILE
10
1.760655
20
1.659781
30
0.0
0
POINT
8
NORMALIZED_PROFILE
10
1.791011
20
1.669074
30
0.0
0
POINT
8
NORMALIZED_PROFILE
10
1.821367
20
1.677825
30
0.0
0
POINT
8
NORMALIZED_PROFILE
10
1.851723
20
1.686011
30
0.0
0
POINT
8
NORMALIZED_PROFILE
10
1.882079
20
1.693609
30
0.0
0
POINT
8
NORMALIZED_PROFILE
10
1.912436
20
1.700595
30
0.0
0
POINT
8
NORMALIZED_PROFILE
10
1.942792
20
1.706946
30
0.0
0
POINT
8
NORMALIZED_PROFILE
10
1.973148
20
1.712638
30
0.0
0
POINT
8
NORMALIZED_PROFILE
10
2.003504
20
1.717647
30
0.0
0
POINT
8
NORMALIZED_PROFILE
10
2.033860
20
1.721950
30
0.0
0
POINT
8
NORMALIZED_PROFILE
10
2.064216
20
1.725524
30
0.0
0
POINT
8
NORMALIZED_PROFILE
10
2.094572
20
1.728344
30
0.0
0
POINT
8
NORMALIZED_PROFILE
10
2.124928
20
1.730388
30
0.0
0
POINT
8
NORMALIZED_PROFILE
10
2.155285
20
1.731631
30
0.0
0
POINT
8
NORMALIZED_PROFILE
10
2.185641
20
1.732051
30
0.0
0
ENDSEC
0
EOF
