<svg xmlns="http://www.w3.org/2000/svg" width="780" height="280" viewBox="0 0 780 280">
<style>text{font-family:Arial,sans-serif;fill:#1f2933;font-size:12px}.title{font-size:18px;font-weight:700}</style>
<rect width="100%" height="100%" fill="#fbfcfd"/>
<text class="title" x="24" y="30">Normalized Nozzle Display Profile</text>
<text x="24" y="50">No absolute dimensions, throat area, or pressure-coupled sizing</text>
<line x1="42" y1="140.0" x2="738" y2="140.0" stroke="#9aa6b2" stroke-dasharray="4 4"/>
<polygon points="42.00,42.00 54.79,45.47 67.58,48.84 80.37,52.10 93.16,55.24 105.95,58.27 118.74,61.18 131.53,63.98 144.32,66.66 157.11,69.21 169.90,71.64 182.69,73.95 195.48,76.12 208.27,78.16 221.06,80.06 233.85,81.81 246.64,83.42 259.43,84.88 272.22,86.18 285.01,87.30 297.79,88.25 310.58,88.99 323.37,89.51 336.16,89.74 341.75,89.72 347.33,89.66 352.91,89.56 358.49,89.42 364.07,89.24 369.65,89.02 375.23,88.77 380.81,88.48 386.39,88.16 391.97,87.81 397.56,87.43 403.14,87.02 408.72,86.58 414.30,86.11 419.88,85.62 425.46,85.10 431.04,84.56 436.62,84.00 442.20,83.41 447.79,82.80 453.37,82.18 458.95,81.54 464.53,80.88 470.11,80.21 475.69,79.52 481.27,78.82 486.85,78.10 492.43,77.38 498.01,76.65 503.60,75.90 509.18,75.16 514.76,74.40 520.34,73.64 525.92,72.88 531.50,72.11 537.08,71.35 542.66,70.58 548.24,69.82 553.83,69.05 559.41,68.30 564.99,67.54 570.57,66.79 576.15,66.05 581.73,65.32 587.31,64.59 592.89,63.88 598.47,63.18 604.05,62.49 609.64,61.82 615.22,61.16 620.80,60.52 626.38,59.89 631.96,59.29 637.54,58.70 643.12,58.14 648.70,57.60 654.28,57.08 659.87,56.59 665.45,56.12 671.03,55.68 676.61,55.27 682.19,54.89 687.77,54.53 693.35,54.22 698.93,53.93 704.51,53.68 710.09,53.46 715.68,53.28 721.26,53.14 726.84,53.04 732.42,52.97 738.00,52.95 738.00,227.05 732.42,227.03 726.84,226.96 721.26,226.86 715.68,226.72 710.09,226.54 704.51,226.32 698.93,226.07 693.35,225.78 687.77,225.47 682.19,225.11 676.61,224.73 671.03,224.32 665.45,223.88 659.87,223.41 654.28,222.92 648.70,222.40 643.12,221.86 637.54,221.30 631.96,220.71 626.38,220.11 620.80,219.48 615.22,218.84 609.64,218.18 604.05,217.51 598.47,216.82 592.89,216.12 587.31,215.41 581.73,214.68 576.15,213.95 570.57,213.21 564.99,212.46 559.41,211.70 553.83,210.95 548.24,210.18 542.66,209.42 537.08,208.65 531.50,207.89 525.92,207.12 520.34,206.36 514.76,205.60 509.18,204.84 503.60,204.10 498.01,203.35 492.43,202.62 486.85,201.90 481.27,201.18 475.69,200.48 470.11,199.79 464.53,199.12 458.95,198.46 453.37,197.82 447.79,197.20 442.20,196.59 436.62,196.00 431.04,195.44 425.46,194.90 419.88,194.38 414.30,193.89 408.72,193.42 403.14,192.98 397.56,192.57 391.97,192.19 386.39,191.84 380.81,191.52 375.23,191.23 369.65,190.98 364.07,190.76 358.49,190.58 352.91,190.44 347.33,190.34 341.75,190.28 336.16,190.26 323.37,190.49 310.58,191.01 297.79,191.75 285.01,192.70 272.22,193.82 259.43,195.12 246.64,196.58 233.85,198.19 221.06,199.94 208.27,201.84 195.48,203.88 182.69,206.05 169.90,208.36 157.11,210.79 144.32,213.34 131.53,216.02 118.74,218.82 105.95,221.73 93.16,224.76 80.37,227.90 67.58,231.16 54.79,234.53 42.00,238.00" fill="#dce8f2" stroke="#31556f" stroke-width="2"/>
<text x="24" y="258">Educational non-operational artifact. Not for fabrication, pressure testing, propellant use, ignition, launch, or hot-fire operations.</text>
</svg>
