<svg xmlns="http://www.w3.org/2000/svg" width="640" height="420" viewBox="0 0 640 420">
<style>text{font-family:Arial,sans-serif;fill:#1f2933;font-size:12px}.title{font-size:18px;font-weight:700}</style>
<rect width="100%" height="100%" fill="#fbfcfd"/>
<text class="title" x="24" y="30">Fin Voronoi Pattern</text>
<text x="24" y="52">Educational lattice sketch; 2 mm skins retained around edges</text>
<polygon points="80.0,330.0 440.0,330.0 440.0,63.0 260.0,63.0" fill="#e5eef6" stroke="#31556f" stroke-width="3"/>
<line x1="260.6" y1="257.2" x2="228.6" y2="330.0" stroke="#4b8f74" stroke-width="2"/>
<line x1="369.5" y1="244.7" x2="285.8" y2="227.9" stroke="#4b8f74" stroke-width="2"/>
<line x1="363.3" y1="330.0" x2="348.1" y2="273.0" stroke="#4b8f74" stroke-width="2"/>
<line x1="271.7" y1="280.0" x2="270.3" y2="330.0" stroke="#4b8f74" stroke-width="2"/>
<line x1="262.1" y1="226.6" x2="206.8" y2="291.8" stroke="#4b8f74" stroke-width="2"/>
<line x1="208.7" y1="258.3" x2="191.1" y2="330.0" stroke="#4b8f74" stroke-width="2"/>
<line x1="354.8" y1="255.1" x2="269.4" y2="252.8" stroke="#4b8f74" stroke-width="2"/>
<line x1="265.0" y1="217.8" x2="204.6" y2="278.2" stroke="#4b8f74" stroke-width="2"/>
<line x1="337.4" y1="330.0" x2="344.2" y2="283.2" stroke="#4b8f74" stroke-width="2"/>
<line x1="380.7" y1="247.0" x2="299.6" y2="220.0" stroke="#4b8f74" stroke-width="2"/>
<line x1="269.5" y1="265.3" x2="243.2" y2="330.0" stroke="#4b8f74" stroke-width="2"/>
<line x1="392.5" y1="316.3" x2="342.3" y2="247.2" stroke="#4b8f74" stroke-width="2"/>
<line x1="215.9" y1="271.2" x2="207.7" y2="330.0" stroke="#4b8f74" stroke-width="2"/>
<line x1="386.1" y1="264.7" x2="309.2" y2="227.4" stroke="#4b8f74" stroke-width="2"/>
<line x1="381.1" y1="242.3" x2="299.7" y2="216.2" stroke="#4b8f74" stroke-width="2"/>
<line x1="333.9" y1="190.5" x2="249.4" y2="203.0" stroke="#4b8f74" stroke-width="2"/>
<line x1="298.8" y1="229.2" x2="227.7" y2="276.7" stroke="#4b8f74" stroke-width="2"/>
<line x1="383.6" y1="261.0" x2="305.2" y2="227.2" stroke="#4b8f74" stroke-width="2"/>
<line x1="387.8" y1="270.0" x2="312.7" y2="229.2" stroke="#4b8f74" stroke-width="2"/>
<line x1="331.8" y1="330.0" x2="312.1" y2="279.0" stroke="#4b8f74" stroke-width="2"/>
<line x1="287.2" y1="244.4" x2="236.9" y2="175.3" stroke="#4b8f74" stroke-width="2"/>
<line x1="283.2" y1="330.0" x2="297.0" y2="246.4" stroke="#4b8f74" stroke-width="2"/>
<line x1="175.6" y1="326.8" x2="235.3" y2="265.7" stroke="#4b8f74" stroke-width="2"/>
<line x1="210.1" y1="221.6" x2="127.6" y2="243.9" stroke="#4b8f74" stroke-width="2"/>
<line x1="131.2" y1="231.0" x2="137.4" y2="316.3" stroke="#4b8f74" stroke-width="2"/>
<line x1="269.4" y1="263.5" x2="223.5" y2="191.4" stroke="#4b8f74" stroke-width="2"/>
<line x1="211.1" y1="213.1" x2="127.3" y2="230.0" stroke="#4b8f74" stroke-width="2"/>
<line x1="262.9" y1="330.0" x2="287.5" y2="258.4" stroke="#4b8f74" stroke-width="2"/>
<line x1="298.2" y1="242.6" x2="250.9" y2="171.4" stroke="#4b8f74" stroke-width="2"/>
<line x1="164.7" y1="313.3" x2="216.8" y2="245.6" stroke="#4b8f74" stroke-width="2"/>
<line x1="307.0" y1="297.7" x2="296.6" y2="212.9" stroke="#4b8f74" stroke-width="2"/>
<line x1="126.6" y1="249.3" x2="165.7" y2="325.3" stroke="#4b8f74" stroke-width="2"/>
<line x1="300.9" y1="257.9" x2="263.2" y2="181.3" stroke="#4b8f74" stroke-width="2"/>
<line x1="299.4" y1="237.7" x2="250.1" y2="167.9" stroke="#4b8f74" stroke-width="2"/>
<line x1="264.7" y1="188.5" x2="187.4" y2="152.1" stroke="#4b8f74" stroke-width="2"/>
<line x1="237.0" y1="243.2" x2="158.3" y2="209.8" stroke="#4b8f74" stroke-width="2"/>
<line x1="298.8" y1="255.4" x2="258.8" y2="179.9" stroke="#4b8f74" stroke-width="2"/>
<line x1="302.1" y1="262.1" x2="267.2" y2="184.1" stroke="#4b8f74" stroke-width="2"/>
<line x1="243.8" y1="330.0" x2="268.8" y2="253.2" stroke="#4b8f74" stroke-width="2"/>
<line x1="332.9" y1="242.4" x2="413.4" y2="213.7" stroke="#4b8f74" stroke-width="2"/>
<line x1="252.8" y1="212.3" x2="324.2" y2="259.1" stroke="#4b8f74" stroke-width="2"/>
<line x1="241.7" y1="130.7" x2="262.1" y2="213.7" stroke="#4b8f74" stroke-width="2"/>
<line x1="198.3" y1="174.9" x2="236.4" y2="251.3" stroke="#4b8f74" stroke-width="2"/>
<line x1="297.6" y1="138.6" x2="361.5" y2="195.2" stroke="#4b8f74" stroke-width="2"/>
<line x1="246.9" y1="118.6" x2="257.6" y2="203.4" stroke="#4b8f74" stroke-width="2"/>
<line x1="316.0" y1="245.0" x2="400.5" y2="232.6" stroke="#4b8f74" stroke-width="2"/>
<line x1="367.2" y1="188.1" x2="348.1" y2="104.8" stroke="#4b8f74" stroke-width="2"/>
<line x1="244.0" y1="188.3" x2="303.6" y2="249.5" stroke="#4b8f74" stroke-width="2"/>
<line x1="352.7" y1="222.9" x2="417.0" y2="166.6" stroke="#4b8f74" stroke-width="2"/>
<line x1="205.5" y1="191.2" x2="253.0" y2="262.3" stroke="#4b8f74" stroke-width="2"/>
<line x1="346.4" y1="197.5" x2="383.8" y2="120.7" stroke="#4b8f74" stroke-width="2"/>
<line x1="378.6" y1="179.6" x2="337.1" y2="104.9" stroke="#4b8f74" stroke-width="2"/>
<line x1="340.7" y1="81.0" x2="277.5" y2="138.5" stroke="#4b8f74" stroke-width="2"/>
<line x1="270.0" y1="124.6" x2="291.4" y2="207.3" stroke="#4b8f74" stroke-width="2"/>
<line x1="343.9" y1="195.8" x2="379.8" y2="118.3" stroke="#4b8f74" stroke-width="2"/>
<line x1="346.0" y1="199.4" x2="389.3" y2="125.8" stroke="#4b8f74" stroke-width="2"/>
<line x1="296.8" y1="230.6" x2="382.0" y2="236.4" stroke="#4b8f74" stroke-width="2"/>
<line x1="312.7" y1="271.9" x2="320.4" y2="330.0" stroke="#4b8f74" stroke-width="2"/>
<line x1="297.8" y1="212.1" x2="262.1" y2="289.7" stroke="#4b8f74" stroke-width="2"/>
<line x1="249.4" y1="249.3" x2="241.3" y2="330.0" stroke="#4b8f74" stroke-width="2"/>
<line x1="392.4" y1="220.8" x2="322.8" y2="270.5" stroke="#4b8f74" stroke-width="2"/>
<line x1="301.0" y1="202.4" x2="259.6" y2="277.1" stroke="#4b8f74" stroke-width="2"/>
<line x1="361.3" y1="282.9" x2="411.3" y2="330.0" stroke="#4b8f74" stroke-width="2"/>
<line x1="427.6" y1="217.2" x2="343.7" y2="233.2" stroke="#4b8f74" stroke-width="2"/>
<line x1="305.8" y1="255.1" x2="297.9" y2="330.0" stroke="#4b8f74" stroke-width="2"/>
<line x1="440.0" y1="287.6" x2="372.6" y2="259.3" stroke="#4b8f74" stroke-width="2"/>
<line x1="257.7" y1="262.8" x2="256.9" y2="330.0" stroke="#4b8f74" stroke-width="2"/>
<line x1="435.6" y1="232.8" x2="350.7" y2="242.7" stroke="#4b8f74" stroke-width="2"/>
<line x1="427.9" y1="213.5" x2="343.8" y2="228.5" stroke="#4b8f74" stroke-width="2"/>
<line x1="374.7" y1="168.1" x2="299.5" y2="208.8" stroke="#4b8f74" stroke-width="2"/>
<line x1="332.5" y1="209.2" x2="284.9" y2="280.2" stroke="#4b8f74" stroke-width="2"/>
<line x1="432.1" y1="229.1" x2="347.7" y2="242.5" stroke="#4b8f74" stroke-width="2"/>
<line x1="438.3" y1="237.8" x2="353.1" y2="244.9" stroke="#4b8f74" stroke-width="2"/>
<line x1="360.6" y1="270.1" x2="374.3" y2="330.0" stroke="#4b8f74" stroke-width="2"/>
<line x1="232.3" y1="237.2" x2="158.3" y2="279.9" stroke="#4b8f74" stroke-width="2"/>
<line x1="173.6" y1="258.8" x2="147.8" y2="330.0" stroke="#4b8f74" stroke-width="2"/>
<line x1="309.6" y1="275.2" x2="236.2" y2="231.4" stroke="#4b8f74" stroke-width="2"/>
<line x1="234.1" y1="228.7" x2="157.2" y2="266.0" stroke="#4b8f74" stroke-width="2"/>
<line x1="299.7" y1="330.0" x2="303.5" y2="282.5" stroke="#4b8f74" stroke-width="2"/>
<line x1="334.8" y1="259.0" x2="267.2" y2="206.7" stroke="#4b8f74" stroke-width="2"/>
<line x1="249.3" y1="277.1" x2="185.1" y2="330.0" stroke="#4b8f74" stroke-width="2"/>
<line x1="345.0" y1="320.4" x2="311.5" y2="241.8" stroke="#4b8f74" stroke-width="2"/>
<line x1="179.0" y1="270.9" x2="166.3" y2="330.0" stroke="#4b8f74" stroke-width="2"/>
<line x1="338.7" y1="275.6" x2="278.3" y2="215.2" stroke="#4b8f74" stroke-width="2"/>
<line x1="335.5" y1="254.1" x2="266.9" y2="203.1" stroke="#4b8f74" stroke-width="2"/>
<line x1="294.6" y1="203.0" x2="210.3" y2="189.2" stroke="#4b8f74" stroke-width="2"/>
<line x1="266.5" y1="247.6" x2="181.6" y2="257.1" stroke="#4b8f74" stroke-width="2"/>
<line x1="336.5" y1="272.6" x2="274.0" y2="214.3" stroke="#4b8f74" stroke-width="2"/>
<line x1="340.0" y1="280.3" x2="282.1" y2="217.6" stroke="#4b8f74" stroke-width="2"/>
<line x1="284.6" y1="330.0" x2="281.0" y2="277.2" stroke="#4b8f74" stroke-width="2"/>
<line x1="91.5" y1="208.4" x2="156.8" y2="263.6" stroke="#4b8f74" stroke-width="2"/>
<line x1="239.2" y1="232.4" x2="233.4" y2="147.2" stroke="#4b8f74" stroke-width="2"/>
<line x1="201.7" y1="185.1" x2="116.3" y2="182.6" stroke="#4b8f74" stroke-width="2"/>
<line x1="242.4" y1="297.9" x2="287.7" y2="225.5" stroke="#4b8f74" stroke-width="2"/>
<line x1="274.5" y1="210.8" x2="254.3" y2="127.8" stroke="#4b8f74" stroke-width="2"/>
<line x1="141.9" y1="259.9" x2="219.3" y2="223.6" stroke="#4b8f74" stroke-width="2"/>
<line x1="284.5" y1="259.7" x2="298.8" y2="175.5" stroke="#4b8f74" stroke-width="2"/>
<line x1="96.6" y1="233.2" x2="175.5" y2="266.0" stroke="#4b8f74" stroke-width="2"/>
<line x1="276.8" y1="224.4" x2="267.0" y2="139.5" stroke="#4b8f74" stroke-width="2"/>
<line x1="276.3" y1="206.2" x2="253.0" y2="124.0" stroke="#4b8f74" stroke-width="2"/>
<line x1="247.4" y1="161.5" x2="184.4" y2="103.8" stroke="#4b8f74" stroke-width="2"/>
<line x1="196.5" y1="230.6" x2="178.4" y2="147.1" stroke="#4b8f74" stroke-width="2"/>
<line x1="274.5" y1="222.3" x2="262.8" y2="137.6" stroke="#4b8f74" stroke-width="2"/>
<line x1="278.0" y1="228.0" x2="270.9" y2="142.9" stroke="#4b8f74" stroke-width="2"/>
<line x1="221.6" y1="291.4" x2="270.7" y2="221.4" stroke="#4b8f74" stroke-width="2"/>
<line x1="218.0" y1="270.2" x2="185.5" y2="191.2" stroke="#4b8f74" stroke-width="2"/>
<line x1="160.0" y1="248.6" x2="89.0" y2="201.0" stroke="#4b8f74" stroke-width="2"/>
<line x1="222.8" y1="330.0" x2="238.1" y2="260.6" stroke="#4b8f74" stroke-width="2"/>
<line x1="248.2" y1="248.8" x2="211.5" y2="171.7" stroke="#4b8f74" stroke-width="2"/>
<line x1="141.7" y1="325.2" x2="150.4" y2="240.2" stroke="#4b8f74" stroke-width="2"/>
<line x1="261.7" y1="301.0" x2="252.4" y2="216.1" stroke="#4b8f74" stroke-width="2"/>
<line x1="80.0" y1="318.7" x2="133.6" y2="262.4" stroke="#4b8f74" stroke-width="2"/>
<line x1="252.0" y1="263.0" x2="222.7" y2="182.7" stroke="#4b8f74" stroke-width="2"/>
<line x1="249.3" y1="244.2" x2="210.8" y2="167.9" stroke="#4b8f74" stroke-width="2"/>
<line x1="213.2" y1="201.9" x2="149.3" y2="145.2" stroke="#4b8f74" stroke-width="2"/>
<line x1="178.4" y1="264.0" x2="127.4" y2="195.5" stroke="#4b8f74" stroke-width="2"/>
<line x1="249.5" y1="260.7" x2="218.6" y2="181.1" stroke="#4b8f74" stroke-width="2"/>
<line x1="253.5" y1="266.9" x2="226.3" y2="185.9" stroke="#4b8f74" stroke-width="2"/>
<line x1="204.5" y1="330.0" x2="218.7" y2="255.2" stroke="#4b8f74" stroke-width="2"/>
<line x1="239.9" y1="136.0" x2="233.4" y2="221.2" stroke="#4b8f74" stroke-width="2"/>
<line x1="303.0" y1="272.2" x2="382.3" y2="240.5" stroke="#4b8f74" stroke-width="2"/>
<line x1="367.2" y1="198.6" x2="316.9" y2="129.5" stroke="#4b8f74" stroke-width="2"/>
<line x1="229.1" y1="205.3" x2="287.4" y2="267.7" stroke="#4b8f74" stroke-width="2"/>
<line x1="350.1" y1="250.5" x2="388.5" y2="174.1" stroke="#4b8f74" stroke-width="2"/>
<line x1="191.8" y1="207.7" x2="235.6" y2="281.0" stroke="#4b8f74" stroke-width="2"/>
<line x1="358.7" y1="218.4" x2="340.3" y2="134.9" stroke="#4b8f74" stroke-width="2"/>
<line x1="370.3" y1="192.0" x2="314.2" y2="127.6" stroke="#4b8f74" stroke-width="2"/>
<line x1="333.7" y1="112.9" x2="253.3" y2="141.7" stroke="#4b8f74" stroke-width="2"/>
<line x1="265.9" y1="140.8" x2="264.3" y2="226.3" stroke="#4b8f74" stroke-width="2"/>
<line x1="358.7" y1="215.6" x2="333.8" y2="133.8" stroke="#4b8f74" stroke-width="2"/>
<line x1="356.9" y1="222.6" x2="347.3" y2="137.7" stroke="#4b8f74" stroke-width="2"/>
<line x1="281.5" y1="257.4" x2="366.1" y2="244.9" stroke="#4b8f74" stroke-width="2"/>
<line x1="240.1" y1="284.9" x2="290.7" y2="216.0" stroke="#4b8f74" stroke-width="2"/>
<line x1="270.6" y1="200.5" x2="258.9" y2="115.8" stroke="#4b8f74" stroke-width="2"/>
<line x1="140.9" y1="245.5" x2="221.0" y2="215.7" stroke="#4b8f74" stroke-width="2"/>
<line x1="281.4" y1="247.8" x2="302.5" y2="165.0" stroke="#4b8f74" stroke-width="2"/>
<line x1="96.0" y1="224.3" x2="176.7" y2="252.5" stroke="#4b8f74" stroke-width="2"/>
<line x1="273.0" y1="213.4" x2="271.5" y2="128.0" stroke="#4b8f74" stroke-width="2"/>
<line x1="272.4" y1="196.0" x2="257.5" y2="111.9" stroke="#4b8f74" stroke-width="2"/>
<line x1="244.8" y1="153.2" x2="187.6" y2="89.7" stroke="#4b8f74" stroke-width="2"/>
<line x1="180.5" y1="219.7" x2="195.2" y2="135.6" stroke="#4b8f74" stroke-width="2"/>
<line x1="270.5" y1="211.5" x2="267.5" y2="126.1" stroke="#4b8f74" stroke-width="2"/>
<line x1="274.2" y1="217.0" x2="275.4" y2="131.5" stroke="#4b8f74" stroke-width="2"/>
<line x1="219.2" y1="278.0" x2="273.8" y2="212.4" stroke="#4b8f74" stroke-width="2"/>
<line x1="413.5" y1="235.6" x2="328.0" y2="236.2" stroke="#4b8f74" stroke-width="2"/>
<line x1="296.7" y1="266.8" x2="277.1" y2="330.0" stroke="#4b8f74" stroke-width="2"/>
<line x1="434.6" y1="306.3" x2="361.4" y2="262.1" stroke="#4b8f74" stroke-width="2"/>
<line x1="246.4" y1="273.7" x2="238.4" y2="330.0" stroke="#4b8f74" stroke-width="2"/>
<line x1="420.8" y1="252.2" x2="335.7" y2="244.9" stroke="#4b8f74" stroke-width="2"/>
<line x1="413.7" y1="231.5" x2="328.3" y2="231.9" stroke="#4b8f74" stroke-width="2"/>
<line x1="362.1" y1="184.0" x2="282.3" y2="214.4" stroke="#4b8f74" stroke-width="2"/>
<line x1="323.1" y1="224.3" x2="264.6" y2="286.6" stroke="#4b8f74" stroke-width="2"/>
<line x1="417.7" y1="248.4" x2="332.3" y2="244.7" stroke="#4b8f74" stroke-width="2"/>
<line x1="423.2" y1="257.3" x2="338.4" y2="246.8" stroke="#4b8f74" stroke-width="2"/>
<line x1="364.0" y1="281.9" x2="341.1" y2="330.0" stroke="#4b8f74" stroke-width="2"/>
<line x1="258.4" y1="183.7" x2="314.2" y2="248.4" stroke="#4b8f74" stroke-width="2"/>
<line x1="360.1" y1="212.9" x2="434.5" y2="170.9" stroke="#4b8f74" stroke-width="2"/>
<line x1="219.1" y1="187.7" x2="264.4" y2="260.1" stroke="#4b8f74" stroke-width="2"/>
<line x1="340.9" y1="178.0" x2="414.3" y2="134.4" stroke="#4b8f74" stroke-width="2"/>
<line x1="413.0" y1="141.8" x2="327.7" y2="137.0" stroke="#4b8f74" stroke-width="2"/>
<line x1="347.3" y1="72.8" x2="295.8" y2="141.0" stroke="#4b8f74" stroke-width="2"/>
<line x1="282.7" y1="121.7" x2="303.7" y2="204.5" stroke="#4b8f74" stroke-width="2"/>
<line x1="334.7" y1="170.1" x2="414.0" y2="138.4" stroke="#4b8f74" stroke-width="2"/>
<line x1="343.9" y1="182.3" x2="416.4" y2="137.1" stroke="#4b8f74" stroke-width="2"/>
<line x1="310.1" y1="221.9" x2="393.7" y2="239.4" stroke="#4b8f74" stroke-width="2"/>
<line x1="322.6" y1="306.1" x2="304.5" y2="222.6" stroke="#4b8f74" stroke-width="2"/>
<line x1="150.5" y1="254.3" x2="165.3" y2="330.0" stroke="#4b8f74" stroke-width="2"/>
<line x1="317.2" y1="264.4" x2="270.4" y2="192.9" stroke="#4b8f74" stroke-width="2"/>
<line x1="315.3" y1="243.4" x2="257.7" y2="180.3" stroke="#4b8f74" stroke-width="2"/>
<line x1="278.4" y1="192.5" x2="197.1" y2="166.2" stroke="#4b8f74" stroke-width="2"/>
<line x1="251.7" y1="241.1" x2="167.0" y2="230.0" stroke="#4b8f74" stroke-width="2"/>
<line x1="315.1" y1="261.6" x2="266.0" y2="191.7" stroke="#4b8f74" stroke-width="2"/>
<line x1="318.3" y1="268.8" x2="274.4" y2="195.5" stroke="#4b8f74" stroke-width="2"/>
<line x1="258.8" y1="330.0" x2="277.4" y2="261.4" stroke="#4b8f74" stroke-width="2"/>
<line x1="260.4" y1="230.3" x2="277.6" y2="314.0" stroke="#4b8f74" stroke-width="2"/>
<line x1="440.0" y1="183.8" x2="367.5" y2="225.2" stroke="#4b8f74" stroke-width="2"/>
<line x1="435.6" y1="168.1" x2="359.6" y2="207.2" stroke="#4b8f74" stroke-width="2"/>
<line x1="380.7" y1="126.7" x2="316.9" y2="183.6" stroke="#4b8f74" stroke-width="2"/>
<line x1="331.8" y1="170.2" x2="309.1" y2="252.5" stroke="#4b8f74" stroke-width="2"/>
<line x1="438.0" y1="180.2" x2="365.1" y2="224.8" stroke="#4b8f74" stroke-width="2"/>
<line x1="440.0" y1="187.8" x2="369.7" y2="228.1" stroke="#4b8f74" stroke-width="2"/>
<line x1="351.4" y1="246.5" x2="406.9" y2="311.4" stroke="#4b8f74" stroke-width="2"/>
<line x1="268.3" y1="274.7" x2="230.2" y2="198.3" stroke="#4b8f74" stroke-width="2"/>
<line x1="265.4" y1="255.4" x2="218.5" y2="184.0" stroke="#4b8f74" stroke-width="2"/>
<line x1="228.5" y1="211.3" x2="157.9" y2="163.1" stroke="#4b8f74" stroke-width="2"/>
<line x1="197.4" y1="271.0" x2="132.2" y2="215.8" stroke="#4b8f74" stroke-width="2"/>
<line x1="265.9" y1="272.3" x2="226.1" y2="196.7" stroke="#4b8f74" stroke-width="2"/>
<line x1="269.8" y1="278.8" x2="233.8" y2="201.3" stroke="#4b8f74" stroke-width="2"/>
<line x1="220.9" y1="330.0" x2="226.1" y2="268.3" stroke="#4b8f74" stroke-width="2"/>
<line x1="417.1" y1="135.0" x2="338.6" y2="168.9" stroke="#4b8f74" stroke-width="2"/>
<line x1="357.3" y1="87.4" x2="300.8" y2="151.6" stroke="#4b8f74" stroke-width="2"/>
<line x1="297.2" y1="133.1" x2="304.2" y2="218.3" stroke="#4b8f74" stroke-width="2"/>
<line x1="404.0" y1="130.3" x2="359.7" y2="203.4" stroke="#4b8f74" stroke-width="2"/>
<line x1="353.1" y1="197.4" x2="422.2" y2="147.2" stroke="#4b8f74" stroke-width="2"/>
<line x1="319.0" y1="229.3" x2="399.8" y2="257.2" stroke="#4b8f74" stroke-width="2"/>
<line x1="345.5" y1="67.1" x2="298.1" y2="138.2" stroke="#4b8f74" stroke-width="2"/>
<line x1="280.9" y1="118.1" x2="306.0" y2="199.7" stroke="#4b8f74" stroke-width="2"/>
<line x1="333.3" y1="161.1" x2="415.8" y2="138.9" stroke="#4b8f74" stroke-width="2"/>
<line x1="341.9" y1="174.1" x2="418.9" y2="136.9" stroke="#4b8f74" stroke-width="2"/>
<line x1="310.2" y1="218.0" x2="394.0" y2="234.9" stroke="#4b8f74" stroke-width="2"/>
<line x1="206.5" y1="107.1" x2="282.8" y2="145.6" stroke="#4b8f74" stroke-width="2"/>
<line x1="297.3" y1="149.3" x2="354.3" y2="85.7" stroke="#4b8f74" stroke-width="2"/>
<line x1="303.0" y1="154.7" x2="360.2" y2="91.3" stroke="#4b8f74" stroke-width="2"/>
<line x1="261.8" y1="204.1" x2="344.8" y2="183.8" stroke="#4b8f74" stroke-width="2"/>
<line x1="302.1" y1="216.2" x2="292.8" y2="131.3" stroke="#4b8f74" stroke-width="2"/>
<line x1="304.9" y1="221.9" x2="301.6" y2="136.5" stroke="#4b8f74" stroke-width="2"/>
<line x1="242.7" y1="278.2" x2="307.2" y2="222.2" stroke="#4b8f74" stroke-width="2"/>
<line x1="355.1" y1="201.4" x2="413.7" y2="139.3" stroke="#4b8f74" stroke-width="2"/>
<line x1="315.1" y1="229.3" x2="397.1" y2="253.4" stroke="#4b8f74" stroke-width="2"/>
<line x1="322.2" y1="231.0" x2="401.6" y2="262.6" stroke="#4b8f74" stroke-width="2"/>
<polyline points="485.0,160.0 485.0,165.0 480.0,165.0 480.0,170.0 475.0,170.0 475.0,165.0 470.0,165.0 470.0,170.0 465.0,170.0 465.0,165.0 470.0,165.0 470.0,160.0 465.0,160.0 465.0,155.0 460.0,155.0 460.0,160.0 455.0,160.0 455.0,155.0 460.0,155.0 460.0,150.0 465.0,150.0 465.0,155.0 470.0,155.0 470.0,150.0 465.0,150.0 465.0,145.0 470.0,145.0 470.0,140.0 465.0,140.0 465.0,135.0 460.0,135.0 460.0,140.0 455.0,140.0 455.0,135.0 460.0,135.0 460.0,130.0 465.0,130.0 465.0,135.0 470.0,135.0 470.0,130.0 475.0,130.0 475.0,135.0 470.0,135.0 470.0,140.0 475.0,140.0 475.0,145.0 480.0,145.0 480.0,140.0 475.0,140.0 475.0,135.0 480.0,135.0 480.0,130.0 485.0,130.0 485.0,135.0 490.0,135.0 490.0,130.0 485.0,130.0 485.0,125.0 490.0,125.0 490.0,120.0 485.0,120.0 485.0,115.0 480.0,115.0 480.0,120.0 475.0,120.0 475.0,115.0 480.0,115.0 480.0,110.0 485.0,110.0 485.0,115.0 490.0,115.0 490.0,110.0 495.0,110.0 495.0,115.0 490.0,115.0 490.0,120.0 495.0,120.0 495.0,125.0 500.0,125.0 500.0,120.0 505.0,120.0 505.0,125.0 500.0,125.0 500.0,130.0 495.0,130.0 495.0,125.0 490.0,125.0 490.0,130.0 495.0,130.0 495.0,135.0 490.0,135.0 490.0,140.0 495.0,140.0 495.0,145.0 500.0,145.0 500.0,140.0 495.0,140.0 495.0,135.0 500.0,135.0 500.0,130.0 505.0,130.0 505.0,135.0 510.0,135.0 510.0,130.0 515.0,130.0 515.0,135.0 510.0,135.0 510.0,140.0 515.0,140.0 515.0,145.0 520.0,145.0 520.0,140.0 515.0,140.0 515.0,135.0 520.0,135.0 520.0,130.0 525.0,130.0 525.0,135.0 530.0,135.0 530.0,130.0 525.0,130.0 525.0,125.0 530.0,125.0 530.0,120.0 525.0,120.0 525.0,115.0 520.0,115.0 520.0,120.0 515.0,120.0 515.0,115.0 520.0,115.0 520.0,110.0 525.0,110.0 525.0,115.0 530.0,115.0 530.0,110.0 535.0,110.0 535.0,115.0 530.0,115.0 530.0,120.0 535.0,120.0 535.0,125.0 540.0,125.0 540.0,120.0 545.0,120.0 545.0,125.0 540.0,125.0 540.0,130.0 535.0,130.0 535.0,125.0 530.0,125.0 530.0,130.0 535.0,130.0 535.0,135.0 530.0,135.0 530.0,140.0 535.0,140.0 535.0,145.0 540.0,145.0 540.0,140.0 545.0,140.0 545.0,145.0 540.0,145.0 540.0,150.0 535.0,150.0 535.0,145.0 530.0,145.0 530.0,150.0 525.0,150.0 525.0,145.0 530.0,145.0 530.0,140.0 525.0,140.0 525.0,135.0 520.0,135.0 520.0,140.0 525.0,140.0 525.0,145.0 520.0,145.0 520.0,150.0 515.0,150.0 515.0,145.0 510.0,145.0 510.0,150.0 515.0,150.0 515.0,155.0 510.0,155.0 510.0,160.0 515.0,160.0 515.0,165.0 520.0,165.0 520.0,160.0 515.0,160.0 515.0,155.0 520.0,155.0 520.0,150.0 525.0,150.0 525.0,155.0 530.0,155.0 530.0,150.0 535.0,150.0 535.0,155.0 530.0,155.0 530.0,160.0 535.0,160.0 535.0,165.0 540.0,165.0 540.0,160.0 545.0,160.0 545.0,165.0 540.0,165.0 540.0,170.0 535.0,170.0 535.0,165.0 530.0,165.0 530.0,170.0 535.0,170.0 535.0,175.0 530.0,175.0 530.0,180.0 535.0,180.0 535.0,185.0 540.0,185.0 540.0,180.0 535.0,180.0 535.0,175.0 540.0,175.0 540.0,170.0 545.0,170.0 545.0,175.0 550.0,175.0 550.0,170.0 555.0,170.0 555.0,175.0 550.0,175.0 550.0,180.0 555.0,180.0 555.0,185.0 560.0,185.0 560.0,180.0 555.0,180.0 555.0,175.0 560.0,175.0 560.0,170.0 565.0,170.0 565.0,175.0 570.0,175.0 570.0,170.0 565.0,170.0 565.0,165.0 570.0,165.0 570.0,160.0 565.0,160.0 565.0,155.0 560.0,155.0 560.0,160.0 555.0,160.0 555.0,155.0 560.0,155.0 560.0,150.0 565.0,150.0 565.0,155.0 570.0,155.0 570.0,150.0 575.0,150.0 575.0,155.0 570.0,155.0 570.0,160.0 575.0,160.0 575.0,165.0 580.0,165.0 580.0,160.0 585.0,160.0 585.0,165.0 580.0,165.0 580.0,170.0 575.0,170.0 575.0,165.0 570.0,165.0 570.0,170.0 575.0,170.0 575.0,175.0 570.0,175.0 570.0,180.0 575.0,180.0 575.0,185.0 580.0,185.0 580.0,180.0 585.0,180.0 585.0,185.0 580.0,185.0 580.0,190.0 575.0,190.0 575.0,185.0 570.0,185.0 570.0,190.0 565.0,190.0 565.0,185.0 570.0,185.0 570.0,180.0 565.0,180.0 565.0,175.0 560.0,175.0 560.0,180.0 565.0,180.0 565.0,185.0 560.0,185.0 560.0,190.0 555.0,190.0 555.0,185.0 550.0,185.0 550.0,190.0 555.0,190.0 555.0,195.0 550.0,195.0 550.0,200.0 555.0,200.0 555.0,205.0 560.0,205.0 560.0,200.0 565.0,200.0 565.0,205.0 560.0,205.0 560.0,210.0 555.0,210.0 555.0,205.0 550.0,205.0 550.0,210.0 545.0,210.0 545.0,205.0 550.0,205.0 550.0,200.0 545.0,200.0 545.0,195.0 540.0,195.0 540.0,200.0 535.0,200.0 535.0,195.0 540.0,195.0 540.0,190.0 545.0,190.0 545.0,195.0 550.0,195.0 550.0,190.0 545.0,190.0 545.0,185.0 550.0,185.0 550.0,180.0 545.0,180.0 545.0,175.0 540.0,175.0 540.0,180.0 545.0,180.0 545.0,185.0 540.0,185.0 540.0,190.0 535.0,190.0 535.0,185.0 530.0,185.0 530.0,190.0 525.0,190.0 525.0,185.0 530.0,185.0 530.0,180.0 525.0,180.0 525.0,175.0 520.0,175.0 520.0,180.0 525.0,180.0 525.0,185.0 520.0,185.0 520.0,190.0 515.0,190.0 515.0,185.0 510.0,185.0 510.0,190.0 515.0,190.0 515.0,195.0 510.0,195.0 510.0,200.0 515.0,200.0 515.0,205.0 520.0,205.0 520.0,200.0 515.0,200.0 515.0,195.0 520.0,195.0 520.0,190.0 525.0,190.0 525.0,195.0 530.0,195.0 530.0,190.0 535.0,190.0 535.0,195.0 530.0,195.0 530.0,200.0 535.0,200.0 535.0,205.0 540.0,205.0 540.0,200.0 545.0,200.0 545.0,205.0 540.0,205.0 540.0,210.0 535.0,210.0 535.0,205.0 530.0,205.0 530.0,210.0 535.0,210.0 535.0,215.0 530.0,215.0 530.0,220.0 535.0,220.0 535.0,225.0 540.0,225.0 540.0,220.0 545.0,220.0 545.0,225.0 540.0,225.0 540.0,230.0 535.0,230.0 535.0,225.0 530.0,225.0 530.0,230.0 525.0,230.0 525.0,225.0 530.0,225.0 530.0,220.0 525.0,220.0 525.0,215.0 520.0,215.0 520.0,220.0 525.0,220.0 525.0,225.0 520.0,225.0 520.0,230.0 515.0,230.0 515.0,225.0 510.0,225.0 510.0,230.0 515.0,230.0 515.0,235.0 510.0,235.0 510.0,240.0 515.0,240.0 515.0,245.0 520.0,245.0 520.0,240.0 515.0,240.0 515.0,235.0 520.0,235.0 520.0,230.0 525.0,230.0 525.0,235.0 530.0,235.0 530.0,230.0 535.0,230.0 535.0,235.0 530.0,235.0 530.0,240.0 535.0,240.0 535.0,245.0 540.0,245.0 540.0,240.0 545.0,240.0 545.0,245.0 540.0,245.0 540.0,250.0 535.0,250.0 535.0,245.0 530.0,245.0 530.0,250.0 535.0,250.0 535.0,255.0 530.0,255.0 530.0,260.0 535.0,260.0 535.0,265.0 540.0,265.0 540.0,260.0 535.0,260.0 535.0,255.0 540.0,255.0 540.0,250.0 545.0,250.0 545.0,255.0 550.0,255.0 550.0,250.0 555.0,250.0 555.0,255.0 550.0,255.0 550.0,260.0 555.0,260.0 555.0,265.0 560.0,265.0 560.0,260.0 555.0,260.0 555.0,255.0 560.0,255.0 560.0,250.0 565.0,250.0 565.0,255.0 570.0,255.0 570.0,250.0 565.0,250.0 565.0,245.0 570.0,245.0 570.0,240.0 565.0,240.0 565.0,235.0 560.0,235.0 560.0,240.0 555.0,240.0 555.0,235.0 560.0,235.0 560.0,230.0 565.0,230.0 565.0,235.0 570.0,235.0 570.0,230.0 575.0,230.0 575.0,235.0 570.0,235.0 570.0,240.0 575.0,240.0 575.0,245.0 580.0,245.0 580.0,240.0 585.0,240.0 585.0,245.0 580.0,245.0 580.0,250.0 575.0,250.0 575.0,245.0 570.0,245.0 570.0,250.0 575.0,250.0 575.0,255.0 570.0,255.0 570.0,260.0 575.0,260.0 575.0,265.0 580.0,265.0 580.0,260.0 585.0,260.0 585.0,265.0 580.0,265.0 580.0,270.0 575.0,270.0 575.0,265.0 570.0,265.0 570.0,270.0 565.0,270.0 565.0,265.0 570.0,265.0 570.0,260.0 565.0,260.0 565.0,255.0 560.0,255.0 560.0,260.0 565.0,260.0 565.0,265.0 560.0,265.0 560.0,270.0 555.0,270.0 555.0,265.0 550.0,265.0 550.0,270.0 555.0,270.0 555.0,275.0 550.0,275.0 550.0,280.0 555.0,280.0 555.0,285.0 560.0,285.0 560.0,280.0 565.0,280.0 565.0,285.0 560.0,285.0 560.0,290.0 555.0,290.0 555.0,285.0 550.0,285.0 550.0,290.0 545.0,290.0 545.0,285.0 550.0,285.0 550.0,280.0 545.0,280.0 545.0,275.0 540.0,275.0 540.0,280.0 535.0,280.0 535.0,275.0 540.0,275.0 540.0,270.0 545.0,270.0 545.0,275.0 550.0,275.0 550.0,270.0 545.0,270.0 545.0,265.0 550.0,265.0 550.0,260.0 545.0,260.0 545.0,255.0 540.0,255.0 540.0,260.0 545.0,260.0 545.0,265.0 540.0,265.0 540.0,270.0 535.0,270.0 535.0,265.0 530.0,265.0 530.0,270.0 525.0,270.0 525.0,265.0 530.0,265.0 530.0,260.0 525.0,260.0 525.0,255.0 520.0,255.0 520.0,260.0 525.0,260.0 525.0,265.0 520.0,265.0 520.0,270.0 515.0,270.0 515.0,265.0 510.0,265.0 510.0,270.0 515.0,270.0 515.0,275.0 510.0,275.0 510.0,280.0 515.0,280.0 515.0,285.0 520.0,285.0 520.0,280.0 525.0,280.0 525.0,285.0 520.0,285.0 520.0,290.0 515.0,290.0 515.0,285.0 510.0,285.0 510.0,290.0 505.0,290.0 505.0,285.0 510.0,285.0 510.0,280.0 505.0,280.0 505.0,275.0 500.0,275.0 500.0,280.0 495.0,280.0 495.0,275.0 500.0,275.0 500.0,270.0 505.0,270.0 505.0,275.0 510.0,275.0 510.0,270.0 505.0,270.0 505.0,265.0 510.0,265.0 510.0,260.0 505.0,260.0 505.0,255.0 500.0,255.0 500.0,260.0 495.0,260.0 495.0,255.0 500.0,255.0 500.0,250.0 505.0,250.0 505.0,255.0 510.0,255.0 510.0,250.0 515.0,250.0 515.0,255.0 510.0,255.0 510.0,260.0 515.0,260.0 515.0,265.0 520.0,265.0 520.0,260.0 515.0,260.0 515.0,255.0 520.0,255.0 520.0,250.0 525.0,250.0 525.0,255.0 530.0,255.0 530.0,250.0 525.0,250.0 525.0,245.0 530.0,245.0 530.0,240.0 525.0,240.0 525.0,235.0 520.0,235.0 520.0,240.0 525.0,240.0 525.0,245.0 520.0,245.0 520.0,250.0 515.0,250.0 515.0,245.0 510.0,245.0 510.0,250.0 505.0,250.0 505.0,245.0 510.0,245.0 510.0,240.0 505.0,240.0 505.0,235.0 500.0,235.0 500.0,240.0 495.0,240.0 495.0,235.0 500.0,235.0 500.0,230.0 505.0,230.0 505.0,235.0 510.0,235.0 510.0,230.0 505.0,230.0 505.0,225.0 510.0,225.0 510.0,220.0 505.0,220.0 505.0,215.0 500.0,215.0 500.0,220.0 505.0,220.0 505.0,225.0 500.0,225.0 500.0,230.0 495.0,230.0 495.0,225.0 490.0,225.0 490.0,230.0 485.0,230.0 485.0,225.0 490.0,225.0 490.0,220.0 485.0,220.0 485.0,215.0 480.0,215.0 480.0,220.0 485.0,220.0 485.0,225.0 480.0,225.0 480.0,230.0 475.0,230.0 475.0,225.0 470.0,225.0 470.0,230.0 475.0,230.0 475.0,235.0 470.0,235.0 470.0,240.0 475.0,240.0 475.0,245.0 480.0,245.0 480.0,240.0 475.0,240.0 475.0,235.0 480.0,235.0 480.0,230.0 485.0,230.0 485.0,235.0 490.0,235.0 490.0,230.0 495.0,230.0 495.0,235.0 490.0,235.0 490.0,240.0 495.0,240.0 495.0,245.0 500.0,245.0 500.0,240.0 505.0,240.0 505.0,245.0 500.0,245.0 500.0,250.0 495.0,250.0 495.0,245.0 490.0,245.0 490.0,250.0 495.0,250.0 495.0,255.0 490.0,255.0 490.0,260.0 495.0,260.0 495.0,265.0 500.0,265.0 500.0,260.0 505.0,260.0 505.0,265.0 500.0,265.0 500.0,270.0 495.0,270.0 495.0,265.0 490.0,265.0 490.0,270.0 485.0,270.0 485.0,265.0 490.0,265.0 490.0,260.0 485.0,260.0 485.0,255.0 480.0,255.0 480.0,260.0 485.0,260.0 485.0,265.0 480.0,265.0 480.0,270.0 475.0,270.0 475.0,265.0 470.0,265.0 470.0,270.0 475.0,270.0 475.0,275.0 470.0,275.0 470.0,280.0 475.0,280.0 475.0,285.0 480.0,285.0 480.0,280.0 485.0,280.0 485.0,285.0 480.0,285.0 480.0,290.0 475.0,290.0 475.0,285.0 470.0,285.0 470.0,290.0 465.0,290.0 465.0,285.0 470.0,285.0 470.0,280.0 465.0,280.0 465.0,275.0 460.0,275.0 460.0,280.0 455.0,280.0 455.0,275.0 460.0,275.0 460.0,270.0 465.0,270.0 465.0,275.0 470.0,275.0 470.0,270.0 465.0,270.0 465.0,265.0 470.0,265.0 470.0,260.0 465.0,260.0 465.0,255.0 460.0,255.0 460.0,260.0 465.0,260.0 465.0,265.0 460.0,265.0 460.0,270.0 455.0,270.0 455.0,265.0 450.0,265.0 450.0,270.0 445.0,270.0 445.0,265.0 450.0,265.0 450.0,260.0 445.0,260.0 445.0,255.0 440.0,255.0 440.0,260.0 445.0,260.0 445.0,265.0 440.0,265.0 440.0,270.0 435.0,270.0 435.0,265.0 430.0,265.0 430.0,270.0 435.0,270.0 435.0,275.0 430.0,275.0 430.0,280.0 435.0,280.0 435.0,285.0 440.0,285.0 440.0,280.0 435.0,280.0 435.0,275.0 440.0,275.0 440.0,270.0 445.0,270.0 445.0,275.0 450.0,275.0 450.0,270.0 455.0,270.0 455.0,275.0 450.0,275.0 450.0,280.0 455.0,280.0 455.0,285.0 460.0,285.0 460.0,280.0 465.0,280.0 465.0,285.0 460.0,285.0 460.0,290.0 455.0,290.0 455.0,285.0 450.0,285.0 450.0,290.0 455.0,290.0 455.0,295.0 450.0,295.0 450.0,300.0 455.0,300.0 455.0,305.0 460.0,305.0 460.0,300.0 465.0,300.0 465.0,305.0 460.0,305.0 460.0,310.0 455.0,310.0 455.0,305.0 450.0,305.0 450.0,310.0 445.0,310.0 445.0,305.0 450.0,305.0 450.0,300.0 445.0,300.0 445.0,295.0 440.0,295.0 440.0,300.0 445.0,300.0 445.0,305.0 440.0,305.0 440.0,310.0 435.0,310.0 435.0,305.0 430.0,305.0 430.0,310.0 435.0,310.0 435.0,315.0 430.0,315.0 430.0,320.0 435.0,320.0 435.0,325.0 440.0,325.0 440.0,320.0 435.0,320.0 435.0,315.0 440.0,315.0 440.0,310.0 445.0,310.0 445.0,315.0 450.0,315.0 450.0,310.0 455.0,310.0 455.0,315.0 450.0,315.0 450.0,320.0 455.0,320.0 455.0,325.0 460.0,325.0 460.0,320.0 465.0,320.0 465.0,325.0 460.0,325.0 460.0,330.0 455.0,330.0 455.0,325.0 450.0,325.0 450.0,330.0 455.0,330.0 455.0,335.0 450.0,335.0 450.0,340.0 455.0,340.0 455.0,345.0 460.0,345.0 460.0,340.0 455.0,340.0 455.0,335.0 460.0,335.0 460.0,330.0 465.0,330.0 465.0,335.0 470.0,335.0 470.0,330.0 475.0,330.0 475.0,335.0 470.0,335.0 470.0,340.0 475.0,340.0 475.0,345.0 480.0,345.0 480.0,340.0 475.0,340.0 475.0,335.0 480.0,335.0 480.0,330.0 485.0,330.0 485.0,335.0 490.0,335.0 490.0,330.0 485.0,330.0 485.0,325.0 490.0,325.0 490.0,320.0 485.0,320.0 485.0,315.0 480.0,315.0 480.0,320.0" fill="none" stroke="#8a5cf6" stroke-width="2"/>
<text x="24" y="390">Leading edge sweep 33.98 deg; rounded-tip radius = thickness x phi = 6.47 mm</text>
</svg>
