<svg xmlns="http://www.w3.org/2000/svg" width="1100" height="260" viewBox="0 0 1100 260">
<style>text{font-family:Arial,sans-serif;fill:#1f2933;font-size:13px}.title{font-size:20px;font-weight:700}</style>
<rect width="100%" height="100%" fill="#fbfcfd"/>
<text class="title" x="24" y="34">ROCKET M1-MK0 Side Profile</text>
<path d="M 44.0 130 C 103.0 72, 187.4 72, 236.3 92 L 1056.0 92 L 1056.0 168 L 236.3 168 C 187.4 188, 103.0 188, 44.0 130 Z" fill="#e5eef6" stroke="#31556f" stroke-width="2"/>
<polygon points="929.5,168 1030.7,168 1030.7,235 980.1,235" fill="#cfe0ef" stroke="#31556f" stroke-width="2"/>
<polyline points="104.7,130.0 104.8,126.9 104.2,123.7 103.1,120.6 101.3,117.9 99.1,115.6 96.4,113.9 93.4,112.9 90.1,112.7 86.8,113.4 83.7,114.9 80.8,117.3 78.3,120.5 76.5,124.4 75.3,128.7 75.0,133.4 75.6,138.2 77.1,142.8 79.4,147.1 82.6,150.8 86.5,153.6 90.9,155.4 95.7,156.1 100.7,155.4 105.5,153.5 110.0,150.2 113.9,145.7 117.0,140.2 119.0,133.8 119.8,126.9 119.4,119.7 117.5,112.6 114.3,106.0 109.9,100.2 104.3,95.5 97.8,92.4 90.7,90.9 83.3,91.3 75.9,93.7 69.0,98.1 62.9,104.3 57.9,112.2" fill="none" stroke="#22a06b" stroke-width="2"/>
<line x1="435.5" y1="65" x2="435.5" y2="190" stroke="#2563eb" stroke-width="3"/><text x="435.5" y="60" text-anchor="middle">CG</text>
<line x1="752.8" y1="65" x2="752.8" y2="190" stroke="#dc2626" stroke-width="3"/><text x="752.8" y="210" text-anchor="middle">CP</text>
<text x="650" y="52">Fin sweep 33.98 deg</text>
<text x="24" y="244">Golden-ratio proportions annotated for educational CAD and simulation.</text>
</svg>
