<svg xmlns="http://www.w3.org/2000/svg" width="720" height="260" viewBox="0 0 720 260">
<style>text{font-family:Arial,sans-serif;fill:#1f2933;font-size:12px}.title{font-size:18px;font-weight:700}</style>
<rect width="100%" height="100%" fill="#fbfcfd"/>
<text class="title" x="24" y="30">Normalized Burnback Teaching Curve</text>
<text x="24" y="50">Shape-only curve, not APCP grain sizing or burn-rate data</text>
<polyline points="48.00,129.50 63.60,125.41 79.20,121.52 94.80,117.84 110.40,114.38 126.00,111.12 141.60,108.08 157.20,105.25 172.80,102.62 188.40,100.20 204.00,98.00 219.60,96.00 235.20,94.22 250.80,92.64 266.40,91.28 282.00,90.12 297.60,89.18 313.20,88.44 328.80,87.92 344.40,87.60 360.00,87.50 375.60,87.60 391.20,87.92 406.80,88.44 422.40,89.18 438.00,90.12 453.60,91.28 469.20,92.64 484.80,94.22 500.40,96.00 516.00,98.00 531.60,100.20 547.20,102.62 562.80,105.24 578.40,108.08 594.00,111.12 609.60,114.38 625.20,117.84 640.80,121.52 656.40,125.41 672.00,129.50" fill="none" stroke="#31556f" stroke-width="3"/>
<text x="24" y="240">Educational non-operational artifact. Not for fabrication, pressure testing, propellant use, ignition, launch, or hot-fire operations.</text>
</svg>
